<?xml version="1.0" encoding="UTF-8" standalone="no"?><!DOCTYPE svg PUBLIC "-//W3C//DTD SVG 1.1//EN" "http://www.w3.org/Graphics/SVG/1.1/DTD/svg11.dtd"><svg width="100%" height="100%" viewBox="0 0 30 24" version="1.1" xmlns="http://www.w3.org/2000/svg" xmlns:xlink="http://www.w3.org/1999/xlink" xml:space="preserve" style="fill-rule:evenodd;clip-rule:evenodd;stroke-linejoin:round;stroke-miterlimit:1.41421;"><g><path d="M20.041,19.591l6.342,0l0,-2.06l3.176,3.169l-3.176,3.168l0,-2.059l-7.626,0l-3.945,-6.903l1.286,-2.132l3.943,6.817Z" style="fill:#fff;"/><path d="M12.37,6.337l1.403,2.675l-1.219,2.079l-1.468,-2.537l-11.086,0l0,-2.217l12.37,0Z" style="fill:#fff;"/><path d="M13.653,15.314l0.025,0l-1.308,2.217l-12.37,0l0,-2.217l11.086,0l1.956,-3.38l1.284,-2.218l3.502,-6.05l0.929,-1.607l7.626,0l0,-2.059l3.176,3.168l-3.176,3.169l0,-2.06l-6.342,0l-4.431,7.657l-1.284,2.218l-0.673,1.162Z" style="fill:#fff;"/></g></svg>