<?xml version="1.0" encoding="UTF-8" standalone="no"?><!DOCTYPE svg PUBLIC "-//W3C//DTD SVG 1.1//EN" "http://www.w3.org/Graphics/SVG/1.1/DTD/svg11.dtd"><svg width="100%" height="100%" viewBox="0 0 24 24" version="1.1" xmlns="http://www.w3.org/2000/svg" xmlns:xlink="http://www.w3.org/1999/xlink" xml:space="preserve" style="fill-rule:evenodd;clip-rule:evenodd;stroke-linecap:round;stroke-linejoin:round;stroke-miterlimit:1.5;"><g><path d="M15.647,1.213c0,-0.393 -0.319,-0.713 -0.713,-0.713l-6.818,0c-0.394,0 -0.714,0.32 -0.714,0.713l0,1.427c0,0.394 0.32,0.714 0.714,0.714l6.818,0c0.394,0 0.713,-0.32 0.713,-0.714l0,-1.427Z" style="fill:none;stroke:#fff;stroke-width:1px;"/><path d="M19.572,3.487l-16.288,0l1.164,18.96l13.863,0l1.261,-18.96Z" style="fill:none;stroke:#fff;stroke-width:1.5px;"/><path d="M1,3.454l21.05,0" style="fill:none;stroke:#fff;stroke-width:2px;"/><g><path d="M11.525,6.927l0,11.986" style="fill:none;stroke:#fff;stroke-width:1px;"/><path d="M8.615,6.927l0,11.986" style="fill:none;stroke:#fff;stroke-width:1px;"/><path d="M14.435,6.927l0,11.986" style="fill:none;stroke:#fff;stroke-width:1px;"/></g></g></svg>