<?xml version="1.0" encoding="UTF-8" standalone="no"?><!DOCTYPE svg PUBLIC "-//W3C//DTD SVG 1.1//EN" "http://www.w3.org/Graphics/SVG/1.1/DTD/svg11.dtd"><svg width="100%" height="100%" viewBox="0 0 21 24" version="1.1" xmlns="http://www.w3.org/2000/svg" xmlns:xlink="http://www.w3.org/1999/xlink" xml:space="preserve" style="fill-rule:evenodd;clip-rule:evenodd;stroke-linejoin:round;stroke-miterlimit:1.41421;"><path d="M18.015,3.763c-1.735,-1.268 -3.839,-1.963 -6.015,-1.963c-5.63,0 -10.2,4.57 -10.2,10.2c0,5.63 4.57,10.2 10.2,10.2c2.705,0 5.3,-1.075 7.212,-2.988l1.273,1.273c-2.25,2.251 -5.302,3.515 -8.485,3.515c-6.623,0 -12,-5.377 -12,-12c0,-6.623 5.377,-12 12,-12c2.727,0 5.358,0.928 7.471,2.609l1.448,-1.148l-0.487,4.215l-4.215,-0.488l1.798,-1.425Z" style="fill:#fff;"/></svg>